name ../AP_Laxity/ap_15.mot
datacolumns   7
datarows 50
range   14.00000000 14.49000000
cursor 1.0 1.0 0.0
keys m_key
wrap
enforce_loops no
enforce_constraints no
calc_derivatives -1.000000
event_color 0.000000 0.000000 0.000000
endheader
            time femur_r_force_vx femur_r_force_vy femur_r_force_vz femur_r_force_px femur_r_force_py femur_r_force_pz 
     14.00000000      -2.14566871       0.57493020       0.00000000      -0.02255621      -0.51082145       0.00000000 
     14.01000000      -2.07525488       0.55606287       0.00000000      -0.02255621      -0.51082145       0.00000000 
     14.02000000      -2.00599041       0.53750351       0.00000000      -0.02255621      -0.51082145       0.00000000 
     14.03000000      -1.93787702       0.51925258       0.00000000      -0.02255621      -0.51082145       0.00000000 
     14.04000000      -1.87091642       0.50131054       0.00000000      -0.02255621      -0.51082145       0.00000000 
     14.05000000      -1.80511026       0.48367784       0.00000000      -0.02255621      -0.51082145       0.00000000 
     14.06000000      -1.74046018       0.46635490       0.00000000      -0.02255621      -0.51082145       0.00000000 
     14.07000000      -1.67696779       0.44934216       0.00000000      -0.02255621      -0.51082145       0.00000000 
     14.08000000      -1.61463466       0.43264005       0.00000000      -0.02255621      -0.51082145       0.00000000 
     14.09000000      -1.55346236       0.41624898       0.00000000      -0.02255621      -0.51082145       0.00000000 
     14.10000000      -1.49345239       0.40016936       0.00000000      -0.02255621      -0.51082145       0.00000000 
     14.11000000      -1.43460626       0.38440159       0.00000000      -0.02255621      -0.51082145       0.00000000 
     14.12000000      -1.37692542       0.36894605       0.00000000      -0.02255621      -0.51082145       0.00000000 
     14.13000000      -1.32041130       0.35380314       0.00000000      -0.02255621      -0.51082145       0.00000000 
     14.14000000      -1.26506533       0.33897323       0.00000000      -0.02255621      -0.51082145       0.00000000 
     14.15000000      -1.21088886       0.32445669       0.00000000      -0.02255621      -0.51082145       0.00000000 
     14.16000000      -1.15788325       0.31025388       0.00000000      -0.02255621      -0.51082145       0.00000000 
     14.17000000      -1.10604981       0.29636515       0.00000000      -0.02255621      -0.51082145       0.00000000 
     14.18000000      -1.05538984       0.28279086       0.00000000      -0.02255621      -0.51082145       0.00000000 
     14.19000000      -1.00590459       0.26953132       0.00000000      -0.02255621      -0.51082145       0.00000000 
     14.20000000      -0.95759530       0.25658689       0.00000000      -0.02255621      -0.51082145       0.00000000 
     14.21000000      -0.91046317       0.24395787       0.00000000      -0.02255621      -0.51082145       0.00000000 
     14.22000000      -0.86450936       0.23164458       0.00000000      -0.02255621      -0.51082145       0.00000000 
     14.23000000      -0.81973502       0.21964734       0.00000000      -0.02255621      -0.51082145       0.00000000 
     14.24000000      -0.77614127       0.20796643       0.00000000      -0.02255621      -0.51082145       0.00000000 
     14.25000000      -0.73372919       0.19660214       0.00000000      -0.02255621      -0.51082145       0.00000000 
     14.26000000      -0.69249982       0.18555477       0.00000000      -0.02255621      -0.51082145       0.00000000 
     14.27000000      -0.65245421       0.17482458       0.00000000      -0.02255621      -0.51082145       0.00000000 
     14.28000000      -0.61359334       0.16441184       0.00000000      -0.02255621      -0.51082145       0.00000000 
     14.29000000      -0.57591818       0.15431681       0.00000000      -0.02255621      -0.51082145       0.00000000 
     14.30000000      -0.53942967       0.14453974       0.00000000      -0.02255621      -0.51082145       0.00000000 
     14.31000000      -0.50412871       0.13508088       0.00000000      -0.02255621      -0.51082145       0.00000000 
     14.32000000      -0.47001619       0.12594046       0.00000000      -0.02255621      -0.51082145       0.00000000 
     14.33000000      -0.43709294       0.11711870       0.00000000      -0.02255621      -0.51082145       0.00000000 
     14.34000000      -0.40535980       0.10861583       0.00000000      -0.02255621      -0.51082145       0.00000000 
     14.35000000      -0.37481754       0.10043206       0.00000000      -0.02255621      -0.51082145       0.00000000 
     14.36000000      -0.34546693       0.09256758       0.00000000      -0.02255621      -0.51082145       0.00000000 
     14.37000000      -0.31730870       0.08502261       0.00000000      -0.02255621      -0.51082145       0.00000000 
     14.38000000      -0.29034354       0.07779732       0.00000000      -0.02255621      -0.51082145       0.00000000 
     14.39000000      -0.26457214       0.07089189       0.00000000      -0.02255621      -0.51082145       0.00000000 
     14.40000000      -0.23999512       0.06430650       0.00000000      -0.02255621      -0.51082145       0.00000000 
     14.41000000      -0.21661310       0.05804131       0.00000000      -0.02255621      -0.51082145       0.00000000 
     14.42000000      -0.19442667       0.05209647       0.00000000      -0.02255621      -0.51082145       0.00000000 
     14.43000000      -0.17343637       0.04647214       0.00000000      -0.02255621      -0.51082145       0.00000000 
     14.44000000      -0.15364272       0.04116844       0.00000000      -0.02255621      -0.51082145       0.00000000 
     14.45000000      -0.13504623       0.03618553       0.00000000      -0.02255621      -0.51082145       0.00000000 
     14.46000000      -0.11764734       0.03152351       0.00000000      -0.02255621      -0.51082145       0.00000000 
     14.47000000      -0.10144649       0.02718251       0.00000000      -0.02255621      -0.51082145       0.00000000 
     14.48000000      -0.08644409       0.02316263       0.00000000      -0.02255621      -0.51082145       0.00000000 
     14.49000000      -0.07264051       0.01946397       0.00000000      -0.02255621      -0.51082145       0.00000000 
